<mxfile host="app.diagrams.net" modified="2024-04-08T11:47:02.850Z" agent="Mozilla/5.0 (Macintosh; Intel Mac OS X 10_15_7) AppleWebKit/537.36 (KHTML, like Gecko) Chrome/123.0.0.0 Safari/537.36" version="24.2.2" etag="SLNOrZb92p3pgIGkvqHx" type="github">
  <diagram name="第 1 页" id="DKY0dcgaV-L2EQ9DRfhB">
    <mxGraphModel>
      <root>
        <mxCell id="0" />
        <mxCell id="1" parent="0" />
      </root>
    </mxGraphModel>
  </diagram>
</mxfile>
